<svg width="20" height="22" viewBox="0 0 20 22" fill="none" xmlns="http://www.w3.org/2000/svg">
  <path d="M13 0H7V1H13V0Z" fill="#004FE0"/>
  <path d="M15 1H5V2H15V1Z" fill="#004FE0"/>
  <path d="M16 2H4V4H16V2Z" fill="#004FE0"/>
  <path d="M7 4H4V5H7V4Z" fill="#004FE0"/>
  <path d="M11 4H9V5H11V4Z" fill="#004FE0"/>
  <path d="M16 4H13V5H16V4Z" fill="#004FE0"/>
  <path d="M7 5H4V6H7V5Z" fill="#004FE0"/>
  <path d="M11 5H9V6H11V5Z" fill="#004FE0"/>
  <path d="M16 5H13V6H16V5Z" fill="#004FE0"/>
  <path d="M16 6H4V8H16V6Z" fill="#004FE0"/>
  <path d="M10 6H8V7H10V6Z" fill="#004FE0"/>
  <path d="M12 6H10V7H12V6Z" fill="#004FE0"/>
  <path d="M11 7H9V8H11V7Z" fill="#004FE0"/>
  <path d="M16 8H4V14H16V8Z" fill="#004FE0"/>
  <path d="M18 9H16V13H18V9Z" fill="#004FE0"/>
  <path d="M4 9H2V13H4V9Z" fill="#004FE0"/>
  <path d="M8 14H6V21H8V14Z" fill="#004FE0"/>
  <path d="M14 14H12V21H14V14Z" fill="#004FE0"/>
  <path d="M9 20H5V22H9V20Z" fill="#004FE0"/>
  <path d="M15 20H11V22H15V20Z" fill="#004FE0"/>
</svg>
